<svg width="34" height="28" viewBox="0 0 34 28" fill="none" xmlns="http://www.w3.org/2000/svg">
<path d="M7.74678 14.4788C7.74678 14.4838 7.74678 14.4882 7.74678 14.4926C8.33293 15.3258 8.63971 16.2677 8.63694 17.2256V18.2834C11.1396 17.4944 14.0667 17.0783 17.126 17.0783C21.182 17.0783 24.1604 17.7908 25.7285 18.2803L25.7394 17.2249C25.7394 16.085 26.0729 15.0654 26.6568 14.2387L27.9784 7.21988C28.3198 5.41944 27.7297 3.69732 26.3147 2.37001C24.8142 0.965024 22.5417 0.157837 20.0803 0.157837H14.2976C11.8315 0.157837 9.55509 0.965024 8.06005 2.37189C6.64671 3.69985 6.05582 5.42197 6.39715 7.22118L7.74678 14.4788Z" fill="white"/>
<path d="M31.1636 13.3181C28.6236 13.3181 27.295 15.284 27.295 17.2249V18.388C27.295 18.821 27.0431 19.2271 26.6357 19.4458C26.2838 19.6366 25.836 19.6712 25.4454 19.5379C24.0849 19.0873 21.1974 18.3316 17.1267 18.3316C14.1468 18.3316 11.313 18.7489 8.93161 19.5379C8.54095 19.6717 8.09284 19.6374 7.74058 19.4464C7.33395 19.2271 7.08133 18.8197 7.08133 18.3886V17.2249C7.08133 15.0315 5.21544 13.3181 2.83024 13.3181C1.51713 13.3181 0.800293 14.5715 0.800293 15.2107C0.800293 15.9878 1.47748 16.8601 2.31013 17.1534C2.3949 17.1835 2.48819 17.2161 2.58768 17.2449C3.34336 17.4881 4.74897 17.9399 4.74897 19.2384V21.7576C4.74897 22.6977 5.00006 24.7657 7.09846 25.1549C7.09109 25.1776 7.08534 25.2006 7.08133 25.2238V26.4772C7.08133 26.8233 7.42943 27.1039 7.8588 27.1039H8.63628C9.06565 27.1039 9.41376 26.8233 9.41376 26.4772V25.225H24.9628V26.4784C24.9628 26.8245 25.3109 27.1051 25.7402 27.1051H26.5177C26.9471 27.1051 27.2952 26.8245 27.2952 26.4784V25.2251C27.2952 25.2075 27.2843 25.1925 27.2827 25.1756C29.1976 24.8811 29.6276 23.1971 29.6276 21.7595V19.2403C29.6276 17.9405 31.027 17.4887 31.7803 17.2455C31.8775 17.2142 31.9692 17.1828 32.0532 17.1546C32.8392 16.8758 33.4526 16.021 33.4526 15.2119C33.4532 14.5627 32.486 13.3181 31.1636 13.3181Z" fill="white"/>
</svg>
