<svg width="34" height="28" viewBox="0 0 34 28" fill="none" xmlns="http://www.w3.org/2000/svg">
<path d="M7.77986 14.7946C7.77986 14.7996 7.77986 14.804 7.77986 14.8084C8.36601 15.6416 8.67279 16.5835 8.67002 17.5413V18.5992C11.1726 17.8102 14.0997 17.3941 17.1591 17.3941C21.215 17.3941 24.1935 18.1066 25.7616 18.5961L25.7725 17.5407C25.7725 16.4007 26.106 15.3812 26.6899 14.5545L28.0115 7.53568C28.3528 5.73524 27.7628 4.01312 26.3478 2.6858C24.8472 1.28082 22.5748 0.473633 20.1134 0.473633H14.3307C11.8645 0.473633 9.58817 1.28082 8.09313 2.68768C6.67979 4.01564 6.08891 5.73777 6.43023 7.53697L7.77986 14.7946Z" fill="#F24253"/>
<path d="M31.1966 13.6339C28.6567 13.6339 27.3281 15.5998 27.3281 17.5406V18.7038C27.3281 19.1368 27.0762 19.5429 26.6688 19.7616C26.3168 19.9524 25.8691 19.987 25.4785 19.8537C24.1179 19.4031 21.2305 18.6474 17.1598 18.6474C14.1798 18.6474 11.346 19.0647 8.9647 19.8537C8.57403 19.9875 8.12592 19.9532 7.77366 19.7622C7.36703 19.5429 7.11441 19.1355 7.11441 18.7044V17.5406C7.11441 15.3473 5.24852 13.6339 2.86333 13.6339C1.55021 13.6339 0.833374 14.8873 0.833374 15.5265C0.833374 16.3036 1.51056 17.1759 2.34321 17.4692C2.42798 17.4993 2.52127 17.5319 2.62076 17.5607C3.37644 17.8039 4.78205 18.2557 4.78205 19.5542V22.0734C4.78205 23.0135 5.03314 25.0815 7.13154 25.4707C7.12418 25.4934 7.11842 25.5164 7.11441 25.5396V26.7929C7.11441 27.1391 7.46251 27.4196 7.89189 27.4196H8.66936C9.09873 27.4196 9.44684 27.1391 9.44684 26.7929V25.5408H24.9959V26.7942C24.9959 27.1403 25.344 27.4209 25.7733 27.4209H26.5508C26.9802 27.4209 27.3283 27.1403 27.3283 26.7942V25.5409C27.3283 25.5233 27.3174 25.5083 27.3158 25.4914C29.2307 25.1968 29.6606 23.5129 29.6606 22.0753V19.5561C29.6606 18.2563 31.0601 17.8045 31.8134 17.5613C31.9106 17.53 32.0023 17.4986 32.0863 17.4704C32.8723 17.1915 33.4857 16.3368 33.4857 15.5277C33.4863 14.8785 32.5191 13.6339 31.1966 13.6339Z" fill="#F24253"/>
</svg>
